<?xml version="1.0" encoding="UTF-8"?><svg xmlns="http://www.w3.org/2000/svg" xmlns:xlink="http://www.w3.org/1999/xlink" fill-opacity="1" color-rendering="auto" color-interpolation="auto" text-rendering="auto" stroke="black" stroke-linecap="square" width="422" stroke-miterlimit="10" shape-rendering="auto" stroke-opacity="1" fill="black" stroke-dasharray="none" font-weight="normal" stroke-width="1" height="357" font-family="'Dialog'" font-style="normal" stroke-linejoin="miter" font-size="12px" stroke-dashoffset="0" image-rendering="auto">
  <!--Generated by ySVG 2.5-->
  <defs id="genericDefs"/>
  <g>
    <defs id="defs1">
      <clipPath clipPathUnits="userSpaceOnUse" id="clipPath1">
        <path d="M0 0 L422 0 L422 357 L0 357 L0 0 Z"/>
      </clipPath>
      <clipPath clipPathUnits="userSpaceOnUse" id="clipPath2">
        <path d="M310 151 L732 151 L732 508 L310 508 L310 151 Z"/>
      </clipPath>
    </defs>
    <g fill="white" text-rendering="geometricPrecision" shape-rendering="geometricPrecision" transform="translate(-310,-151)" stroke="white">
      <rect x="310" width="422" height="357" y="151" clip-path="url(#clipPath2)" stroke="none"/>
    </g>
    <g fill="rgb(255,204,0)" text-rendering="geometricPrecision" shape-rendering="geometricPrecision" transform="matrix(1,0,0,1,-310,-151)" stroke="rgb(255,204,0)">
      <rect x="489" y="398" clip-path="url(#clipPath2)" width="221" rx="4" ry="4" height="37" stroke="none"/>
    </g>
    <g text-rendering="geometricPrecision" stroke-miterlimit="1.45" shape-rendering="geometricPrecision" transform="matrix(1,0,0,1,-310,-151)" stroke-linecap="butt">
      <rect x="489" y="398" clip-path="url(#clipPath2)" fill="none" width="221" rx="4" ry="4" height="37"/>
      <text x="575.7051" xml:space="preserve" y="420.6543" clip-path="url(#clipPath2)" font-family="sans-serif" stroke="none">wiringpi</text>
    </g>
    <g fill="rgb(255,204,0)" text-rendering="geometricPrecision" shape-rendering="geometricPrecision" transform="matrix(1,0,0,1,-310,-151)" stroke="rgb(255,204,0)">
      <rect x="489" y="456" clip-path="url(#clipPath2)" width="221" rx="4" ry="4" height="37" stroke="none"/>
    </g>
    <g text-rendering="geometricPrecision" stroke-miterlimit="1.45" shape-rendering="geometricPrecision" transform="matrix(1,0,0,1,-310,-151)" stroke-linecap="butt">
      <rect x="489" y="456" clip-path="url(#clipPath2)" fill="none" width="221" rx="4" ry="4" height="37"/>
      <text x="569.8574" xml:space="preserve" y="478.6543" clip-path="url(#clipPath2)" font-family="sans-serif" stroke="none">Raspbian </text>
    </g>
    <g fill="rgb(255,204,0)" text-rendering="geometricPrecision" shape-rendering="geometricPrecision" transform="matrix(1,0,0,1,-310,-151)" stroke="rgb(255,204,0)">
      <rect x="489" y="340" clip-path="url(#clipPath2)" width="221" rx="4" ry="4" height="37" stroke="none"/>
    </g>
    <g text-rendering="geometricPrecision" stroke-miterlimit="1.45" shape-rendering="geometricPrecision" transform="matrix(1,0,0,1,-310,-151)" stroke-linecap="butt">
      <rect x="489" y="340" clip-path="url(#clipPath2)" fill="none" width="221" rx="4" ry="4" height="37"/>
      <text x="552.8945" xml:space="preserve" y="362.6543" clip-path="url(#clipPath2)" font-family="sans-serif" stroke="none">libLcd13Inch.so</text>
    </g>
    <g fill="rgb(255,204,0)" text-rendering="geometricPrecision" shape-rendering="geometricPrecision" transform="matrix(1,0,0,1,-310,-151)" stroke="rgb(255,204,0)">
      <rect x="489" y="282" clip-path="url(#clipPath2)" width="221" rx="4" ry="4" height="37" stroke="none"/>
    </g>
    <g text-rendering="geometricPrecision" stroke-miterlimit="1.45" shape-rendering="geometricPrecision" transform="matrix(1,0,0,1,-310,-151)" stroke-linecap="butt">
      <rect x="489" y="282" clip-path="url(#clipPath2)" fill="none" width="221" rx="4" ry="4" height="37"/>
      <text x="518.6201" xml:space="preserve" y="304.6543" clip-path="url(#clipPath2)" font-family="sans-serif" stroke="none">libWsLcd13NativeDriver.so</text>
    </g>
    <g fill="rgb(255,204,0)" text-rendering="geometricPrecision" shape-rendering="geometricPrecision" transform="matrix(1,0,0,1,-310,-151)" stroke="rgb(255,204,0)">
      <rect x="489" y="224" clip-path="url(#clipPath2)" width="221" rx="4" ry="4" height="37" stroke="none"/>
    </g>
    <g text-rendering="geometricPrecision" stroke-miterlimit="1.45" shape-rendering="geometricPrecision" transform="matrix(1,0,0,1,-310,-151)" stroke-linecap="butt">
      <rect x="489" y="224" clip-path="url(#clipPath2)" fill="none" width="221" rx="4" ry="4" height="37"/>
      <text x="505.3398" xml:space="preserve" y="246.6543" clip-path="url(#clipPath2)" font-family="sans-serif" stroke="none">lcd-13-240x240-driver-1.0.0.jar</text>
    </g>
    <g fill="rgb(255,204,0)" text-rendering="geometricPrecision" shape-rendering="geometricPrecision" transform="matrix(1,0,0,1,-310,-151)" stroke="rgb(255,204,0)">
      <rect x="489" y="166" clip-path="url(#clipPath2)" width="221" rx="4" ry="4" height="37" stroke="none"/>
    </g>
    <g text-rendering="geometricPrecision" stroke-miterlimit="1.45" shape-rendering="geometricPrecision" transform="matrix(1,0,0,1,-310,-151)" stroke-linecap="butt">
      <rect x="489" y="166" clip-path="url(#clipPath2)" fill="none" width="221" rx="4" ry="4" height="37"/>
      <text x="504.3936" xml:space="preserve" y="188.6543" clip-path="url(#clipPath2)" font-family="sans-serif" stroke="none">lcd-13-240x240-driver-example</text>
      <rect x="325" y="217.5" clip-path="url(#clipPath2)" fill="none" width="392" rx="4" ry="4" height="109"/>
      <text x="331" xml:space="preserve" y="234.6387" clip-path="url(#clipPath2)" font-family="sans-serif" stroke="none">lcd-13-240x240-driver</text>
      <rect x="325" y="333" clip-path="url(#clipPath2)" fill="none" width="392" rx="4" ry="4" height="50"/>
      <text x="331" xml:space="preserve" y="350.1387" clip-path="url(#clipPath2)" font-family="sans-serif" stroke="none">lcd-13-240x240-wiringpi</text>
      <path fill="none" d="M599.5 434.9932 L599.5 448.0197" clip-path="url(#clipPath2)"/>
      <path d="M599.5 456.0197 L604.5 444.0197 L599.5 447.0197 L594.5 444.0197 Z" clip-path="url(#clipPath2)" stroke="none"/>
      <path fill="none" d="M599.5 376.9932 L599.5 390.0197" clip-path="url(#clipPath2)"/>
      <path d="M599.5 398.0197 L604.5 386.0197 L599.5 389.0197 L594.5 386.0197 Z" clip-path="url(#clipPath2)" stroke="none"/>
      <path fill="none" d="M599.5 318.9932 L599.5 332.0197" clip-path="url(#clipPath2)"/>
      <path d="M599.5 340.0197 L604.5 328.0197 L599.5 331.0197 L594.5 328.0197 Z" clip-path="url(#clipPath2)" stroke="none"/>
      <path fill="none" d="M599.5 260.9932 L599.5 274.0197" clip-path="url(#clipPath2)"/>
      <path d="M599.5 282.0197 L604.5 270.0197 L599.5 273.0197 L594.5 270.0197 Z" clip-path="url(#clipPath2)" stroke="none"/>
      <path fill="none" d="M599.5 202.9932 L599.5 216.0197" clip-path="url(#clipPath2)"/>
      <path d="M599.5 224.0197 L604.5 212.0197 L599.5 215.0197 L594.5 212.0197 Z" clip-path="url(#clipPath2)" stroke="none"/>
    </g>
  </g>
</svg>
