<?xml version="1.0" encoding="UTF-8" standalone="no"?>
<svg
   xmlns:dc="http://purl.org/dc/elements/1.1/"
   xmlns:cc="http://creativecommons.org/ns#"
   xmlns:rdf="http://www.w3.org/1999/02/22-rdf-syntax-ns#"
   xmlns:svg="http://www.w3.org/2000/svg"
   xmlns="http://www.w3.org/2000/svg"
   xmlns:xlink="http://www.w3.org/1999/xlink"
   xmlns:sodipodi="http://sodipodi.sourceforge.net/DTD/sodipodi-0.dtd"
   xmlns:inkscape="http://www.inkscape.org/namespaces/inkscape"
   version="1.1"
   width="388.52567"
   height="100"
   id="svg129"
   sodipodi:docname="graphics-banner.svg"
   inkscape:version="0.92.3 (2405546, 2018-03-11)">
  <metadata
     id="metadata135">
    <rdf:RDF>
      <cc:Work
         rdf:about="">
        <dc:format>image/svg+xml</dc:format>
        <dc:type
           rdf:resource="http://purl.org/dc/dcmitype/StillImage" />
        <dc:title></dc:title>
      </cc:Work>
    </rdf:RDF>
  </metadata>
  <defs
     id="defs133">
    <linearGradient
       x1="150.96111"
       y1="192.35176"
       x2="112.03144"
       y2="137.27299"
       id="linearGradient1475"
       xlink:href="#linearGradient4671"
       gradientUnits="userSpaceOnUse"
       gradientTransform="matrix(0.40042424,0,0,0.4042901,228.72322,76.118886)" />
    <linearGradient
       id="linearGradient4671">
      <stop
         style="stop-color:#ffd43b;stop-opacity:1"
         offset="0"
         id="stop4673" />
      <stop
         style="stop-color:#ffe873;stop-opacity:1"
         offset="1"
         id="stop4675" />
    </linearGradient>
    <linearGradient
       x1="26.648937"
       y1="20.603781"
       x2="135.66525"
       y2="114.39767"
       id="linearGradient1478"
       xlink:href="#linearGradient4689"
       gradientUnits="userSpaceOnUse"
       gradientTransform="matrix(0.40042424,0,0,0.4042901,228.72322,76.118886)" />
    <linearGradient
       id="linearGradient4689">
      <stop
         style="stop-color:#5a9fd4;stop-opacity:1"
         offset="0"
         id="stop4691" />
      <stop
         style="stop-color:#306998;stop-opacity:1"
         offset="1"
         id="stop4693" />
    </linearGradient>
  </defs>
  <sodipodi:namedview
     pagecolor="#ffffff"
     bordercolor="#666666"
     borderopacity="1"
     objecttolerance="10"
     gridtolerance="10"
     guidetolerance="10"
     inkscape:pageopacity="0"
     inkscape:pageshadow="2"
     inkscape:window-width="1920"
     inkscape:window-height="1200"
     id="namedview131"
     showgrid="false"
     inkscape:zoom="1.3763889"
     inkscape:cx="234.761"
     inkscape:cy="-45.804535"
     inkscape:window-x="0"
     inkscape:window-y="0"
     inkscape:window-maximized="1"
     inkscape:current-layer="svg129"
     fit-margin-top="10"
     fit-margin-right="10"
     fit-margin-left="10"
     fit-margin-bottom="10" />
  <g
     id="g4304"
     transform="matrix(0.63238199,0,0,0.63238199,-41.53704,-42.500783)">
    <path
       inkscape:connector-curvature="0"
       id="path101"
       style="fill:#000000;stroke-width:0.18063462"
       d="m 109.50322,83.02208 c -0.66813,0.01985 -1.38769,0.256172 -2.2037,0.872718 -1.9987,-0.738169 -3.93706,-0.99462 -5.67079,0.508151 -2.675617,-0.332425 -3.546287,0.353637 -4.205499,1.154408 -0.587509,-0.0116 -4.397042,-0.578336 -6.143835,1.916646 -4.390175,-0.497277 -5.777494,2.472375 -4.205498,5.241775 -0.896603,1.328986 -1.825637,2.641933 0.271136,5.175493 -0.741738,1.411094 -0.281969,2.941849 1.465291,4.794359 -0.461114,1.98361 0.445277,3.38317 2.07102,4.47402 -0.304059,2.71446 2.599864,4.29282 3.467084,4.85512 0.332966,1.58169 1.026933,3.07418 4.343952,3.89957 0.547022,2.35717 2.540519,2.76423 4.470869,3.25885 -6.380256,3.55084 -11.851672,8.22293 -11.814627,19.68565 l -0.934556,1.59628 c -7.315997,4.26011 -13.897929,17.95194 -3.605537,29.08107 0.672303,3.48348 1.799809,5.9855 2.803666,8.75471 1.501534,11.15839 11.300984,16.38334 13.885644,17.00123 3.78742,2.76229 7.82131,5.38327 13.27991,7.21919 5.14585,5.08149 10.72065,7.01813 16.32588,7.0148 0.0822,-6e-5 0.16587,8.8e-4 0.24806,0 5.60523,0.003 11.18002,-1.93331 16.32587,-7.0148 5.4586,-1.83592 9.49249,-4.4569 13.27991,-7.21919 2.58466,-0.61789 12.38411,-5.84284 13.88565,-17.00123 1.00385,-2.76921 2.13136,-5.27123 2.80366,-8.75471 10.29239,-11.12913 3.71046,-24.82096 -3.60554,-29.08107 l -0.93455,-1.59628 c 0.037,-11.46272 -5.43437,-16.13481 -11.81462,-19.68565 1.93034,-0.49462 3.92384,-0.90168 4.47086,-3.25885 3.31702,-0.82539 4.01099,-2.31788 4.34395,-3.89957 0.86722,-0.5623 3.77114,-2.14066 3.46709,-4.85512 1.62574,-1.09085 2.53213,-2.49041 2.07102,-4.47402 1.74726,-1.85251 2.20702,-3.383265 1.46529,-4.794359 2.09677,-2.53356 1.16774,-3.846507 0.27113,-5.175493 1.572,-2.7694 0.18468,-5.739052 -4.20549,-5.241775 -1.7468,-2.494982 -5.55633,-1.92829 -6.14384,-1.916646 -0.65921,-0.800771 -1.52988,-1.486833 -4.2055,-1.154408 -1.73373,-1.502771 -3.67209,-1.24632 -5.67079,-0.508151 -2.37385,-1.793573 -3.94539,-0.355857 -5.74001,0.187793 -2.87499,-0.899273 -3.53202,0.332448 -4.94391,0.83404 -3.13369,-0.63419 -4.08631,0.746523 -5.59003,2.203868 l -1.74796,-0.03312 c -4.7278,2.667718 -7.07655,8.099696 -7.90911,10.892283 -0.83294,-2.793022 -3.17637,-8.225033 -7.90334,-10.892283 l -1.74796,0.03312 c -1.50372,-1.457345 -2.45633,-2.838058 -5.59002,-2.203868 -1.41189,-0.501592 -2.06893,-1.733313 -4.94392,-0.83404 -1.17772,-0.356771 -2.26078,-1.098409 -3.53631,-1.060511 z" />
    <path
       inkscape:connector-curvature="0"
       id="path103"
       style="fill:#75a928;stroke-width:0.18063462"
       d="m 100.09155,94.75824 c 12.54338,6.19183 19.83507,11.20052 23.82995,15.46649 -2.04584,7.85087 -12.71852,8.20914 -16.62089,7.98891 0.79904,-0.35612 1.46573,-0.78262 1.70214,-1.43801 -0.97923,-0.66631 -4.45132,-0.0702 -6.87531,-1.37409 0.93116,-0.1847 1.36671,-0.36464 1.80227,-1.02258 -2.29014,-0.69934 -4.756978,-1.30202 -6.2078,-2.46057 0.78295,0.009 1.513962,0.16769 2.53652,-0.5113 -2.051258,-1.05841 -4.240178,-1.89716 -5.940798,-3.51511 1.060586,-0.0249 2.204065,-0.01 2.536521,-0.38347 -1.877499,-1.11366 -3.461545,-2.35218 -4.772664,-3.70685 1.484208,0.17154 2.110994,0.0239 2.46977,-0.22368 -1.419194,-1.39178 -3.215342,-2.56699 -4.071783,-4.282051 1.10201,0.363665 2.110249,0.502865 2.836898,-0.03201 -0.482252,-1.041675 -2.548527,-1.656091 -3.73803,-4.090323 1.160115,0.107738 2.390543,0.242354 2.636646,0 -0.539468,-2.101316 -1.463436,-3.282268 -2.369644,-4.505736 2.482925,-0.03535 6.244722,0.0089 6.074299,-0.19173 l -1.535262,-1.50191 c 2.42525,-0.625212 4.906881,0.100376 6.708427,0.639108 0.80891,-0.611148 -0.0143,-1.383958 -1.00126,-2.172974 2.06109,0.263467 3.92353,0.717146 5.60705,1.342135 0.89946,-0.777595 -0.58407,-1.555178 -1.30164,-2.332762 3.18429,0.578425 4.53334,1.391152 5.87405,2.204938 0.97274,-0.892738 0.0557,-1.651439 -0.60075,-2.428622 2.40089,0.851417 3.63757,1.95054 4.93953,3.035778 0.44143,-0.570384 1.12146,-0.988464 0.30038,-2.364716 1.70466,0.940796 2.9886,2.049444 3.93829,3.291426 1.0547,-0.643013 0.62836,-1.522356 0.63412,-2.332763 1.77158,1.37981 2.89586,2.848163 4.27204,4.282053 0.27722,-0.19327 0.51996,-0.848706 0.73425,-1.885384 4.22657,3.925972 10.19859,13.814553 1.53527,17.735353 -7.36915,-5.82345 -16.17425,-10.05493 -25.93259,-13.229606 z" />
    <path
       inkscape:connector-curvature="0"
       id="path105"
       style="fill:#75a928;stroke-width:0.18063462"
       d="m 166.64721,94.75824 c -12.54338,6.19183 -19.83507,11.20052 -23.82994,15.46649 2.04584,7.85087 12.71851,8.20914 16.62088,7.98891 -0.79904,-0.35612 -1.46573,-0.78262 -1.70214,-1.43801 0.97923,-0.66631 4.45133,-0.0702 6.87531,-1.37409 -0.93115,-0.1847 -1.36671,-0.36464 -1.80226,-1.02258 2.29013,-0.69934 4.75697,-1.30202 6.2078,-2.46057 -0.78296,0.009 -1.51397,0.16769 -2.53653,-0.5113 2.05126,-1.05841 4.24018,-1.89716 5.9408,-3.51511 -1.06058,-0.0249 -2.20406,-0.01 -2.53652,-0.38347 1.8775,-1.11366 3.46155,-2.35218 4.77266,-3.70685 -1.4842,0.17154 -2.11099,0.0239 -2.46976,-0.22368 1.41919,-1.39178 3.21534,-2.56699 4.07178,-4.282051 -1.10201,0.363665 -2.11025,0.502865 -2.8369,-0.03201 0.48225,-1.041675 2.54853,-1.656091 3.73803,-4.090323 -1.16012,0.107738 -2.39054,0.242354 -2.63665,0 0.53947,-2.101316 1.46344,-3.282268 2.36965,-4.505736 -2.48293,-0.03535 -6.24472,0.0089 -6.0743,-0.19173 l 1.53526,-1.501912 c -2.42525,-0.625212 -4.90688,0.100376 -6.70843,0.639108 -0.8089,-0.611148 0.0143,-1.383958 1.00126,-2.172974 -2.06109,0.263467 -3.92353,0.717146 -5.60704,1.342135 -0.89946,-0.777595 0.58406,-1.555178 1.30163,-2.332762 -3.18429,0.578425 -4.53334,1.391152 -5.87405,2.204938 -0.97274,-0.892738 -0.0557,-1.651439 0.60076,-2.428622 -2.40089,0.851417 -3.63757,1.95054 -4.93954,3.035778 -0.44142,-0.570384 -1.12146,-0.988464 -0.30038,-2.364716 -1.70466,0.940796 -2.98859,2.049444 -3.93828,3.291426 -1.05471,-0.643013 -0.62837,-1.522356 -0.63413,-2.332763 -1.77158,1.37981 -2.89585,2.848163 -4.27204,4.282053 -0.27721,-0.19327 -0.51995,-0.848706 -0.73425,-1.885384 -4.22657,3.925972 -10.19859,13.814555 -1.53526,17.735355 7.36914,-5.82345 16.17424,-10.054932 25.93258,-13.229608 z" />
    <path
       inkscape:connector-curvature="0"
       id="path107"
       style="fill:#bc1142;stroke-width:0.20404075"
       d="m 148.56003,174.7037 a 15.0249,13.265478 0 1 1 -30.0498,0 15.0249,13.265478 0 1 1 30.0498,0 z" />
    <path
       inkscape:connector-curvature="0"
       id="path109"
       style="fill:#bc1142;stroke-width:0.34334558"
       d="m 124.8399,136.80852 a 13.257738,15.473952 41.661724 1 1 -17.53139,25.40129 13.257738,15.473952 41.661724 1 1 17.53139,-25.40129 z" />
    <path
       inkscape:connector-curvature="0"
       id="path111"
       style="fill:#bc1142;stroke-width:0.34334558"
       d="m 141.64476,136.10151 a 15.473952,13.257738 48.338276 1 0 17.53139,25.40129 15.473952,13.257738 48.338276 1 0 -17.53139,-25.40129 z" />
    <path
       inkscape:connector-curvature="0"
       id="path113"
       style="fill:#bc1142;stroke-width:0.18063462"
       d="m 93.726132,143.19371 c 6.722188,-1.72454 2.269071,26.62516 -3.199803,24.29899 -6.015632,-4.63312 -7.953286,-18.20102 3.199803,-24.29899 z" />
    <path
       inkscape:connector-curvature="0"
       id="path115"
       style="fill:#bc1142;stroke-width:0.18063462"
       d="m 171.40138,142.84021 c -6.72219,-1.72455 -2.26907,26.62516 3.1998,24.29899 6.01563,-4.63313 7.95329,-18.20101 -3.1998,-24.29899 z" />
    <path
       inkscape:connector-curvature="0"
       id="path117"
       style="fill:#bc1142;stroke-width:0.18063462"
       d="m 148.56469,121.73005 c 11.59954,-1.87535 21.25081,4.7232 20.8623,16.76625 -0.38157,4.61693 -25.13538,-16.07888 -20.8623,-16.76625 z" />
    <path
       inkscape:connector-curvature="0"
       id="path119"
       style="fill:#bc1142;stroke-width:0.18063462"
       d="m 116.51534,121.37656 c -11.59953,-1.87536 -21.250805,4.72318 -20.862295,16.76624 0.381562,4.61693 25.135375,-16.07889 20.862295,-16.76624 z" />
    <path
       inkscape:connector-curvature="0"
       id="path121"
       style="fill:#bc1142;stroke-width:0.18063462"
       d="m 133.17757,118.56662 c -6.92311,-0.17242 -13.56752,4.91972 -13.58341,7.87327 -0.0193,3.5888 5.47371,7.26316 13.63061,7.35644 8.32987,0.0571 13.64508,-2.94123 13.67194,-6.6448 0.0304,-4.19606 -7.5759,-8.64973 -13.71914,-8.58491 z" />
    <path
       inkscape:connector-curvature="0"
       id="path123"
       style="fill:#bc1142;stroke-width:0.18063462"
       d="m 133.60032,192.15887 c 6.03607,-0.25225 14.13525,1.86154 14.15112,4.66551 0.10018,2.72289 -7.34532,8.87477 -14.55162,8.75584 -7.46302,0.30823 -14.78103,-5.85322 -14.68512,-7.98889 -0.1117,-3.13132 9.08729,-5.57615 15.08562,-5.43246 z" />
    <path
       inkscape:connector-curvature="0"
       id="path125"
       style="fill:#bc1142;stroke-width:0.18063462"
       d="m 111.30564,175.54196 c 4.29741,4.95711 6.25634,13.66622 2.67002,16.23345 -3.39285,1.95978 -11.63228,1.1527 -17.488635,-6.90241 -3.949602,-6.75927 -3.440564,-13.63751 -0.667506,-15.65825 4.147011,-2.41871 10.554411,0.84824 15.486121,6.32721 z" />
    <path
       inkscape:connector-curvature="0"
       id="path127"
       style="fill:#bc1142;stroke-width:0.18063462"
       d="m 155.03492,173.9703 c -4.64958,5.21445 -7.23872,14.72505 -3.84674,17.78872 3.24316,2.37971 11.94923,2.04707 18.38017,-6.49661 4.66973,-5.73817 3.10505,-15.32118 0.43765,-17.86513 -3.96234,-2.93444 -9.6505,0.82099 -14.97108,6.57302 z" />
  </g>
  <g
     id="g4316"
     transform="matrix(0.6375483,0,0,0.6375483,-25.570441,-43.103927)">
    <g
       id="g234"
       transform="matrix(0.21168412,0,0,0.24507978,191.37923,83.294055)">
      <path
         id="path230"
         d="m 253.464,94.869 c -23.658,16.639 -50.471,35.498 -64.838,66.699 -24.954,54.435 51.062,113.812 54.311,116.313 0.755,0.581 1.659,0.871 2.56,0.871 0.957,0 1.915,-0.327 2.693,-0.979 1.509,-1.262 1.937,-3.406 1.031,-5.152 -0.275,-0.53 -27.561,-53.53 -26.547,-91.552 0.359,-13.243 18.892,-28.266 38.512,-44.171 17.97,-14.568 38.34,-31.079 50.258,-50.394 26.164,-42.516 -2.916,-84.322 -3.213,-84.74 -1.155,-1.622 -3.287,-2.209 -5.11,-1.41 -1.821,0.804 -2.83,2.773 -2.414,4.72 0.059,0.277 5.714,27.923 -10.022,56.406 -6.482,11.77 -20.726,21.788 -37.221,33.389 z"
         style="fill:#db380e"
         inkscape:connector-curvature="0" />
      <path
         id="path232"
         d="m 353.137,113.617 c 1.669,-1.257 2.159,-3.55 1.15,-5.38 -1.011,-1.83 -3.211,-2.637 -5.165,-1.895 -4.019,1.528 -98.416,37.915 -98.416,81.88 0,30.307 12.946,46.317 22.399,58.009 3.708,4.586 6.909,8.546 7.964,11.927 2.97,9.743 -4.066,27.353 -7.025,33.317 -0.853,1.714 -0.435,3.792 1.016,5.044 0.784,0.677 1.763,1.021 2.743,1.021 0.834,0 1.672,-0.248 2.396,-0.752 1.623,-1.128 39.667,-28.026 32.844,-60.433 -2.542,-12.318 -8.595,-21.318 -13.936,-29.26 -8.274,-12.305 -14.25,-21.193 -5.184,-37.609 10.622,-19.148 58.727,-55.505 59.214,-55.869 z"
         style="fill:#db380e"
         inkscape:connector-curvature="0" />
    </g>
    <g
       id="g248"
       transform="matrix(0.21168412,0,0,0.24507978,191.37923,83.294055)">
      <path
         id="path236"
         d="m 107.418,298.236 c -1.618,4.845 -0.854,9.651 2.207,13.903 10.233,14.207 46.48,22.029 102.068,22.029 0.003,0 0.005,0 0.007,0 7.532,0 15.484,-0.148 23.629,-0.44 88.875,-3.181 121.839,-30.869 123.199,-32.046 1.482,-1.283 1.878,-3.419 0.957,-5.147 -0.922,-1.727 -2.909,-2.595 -4.808,-2.072 -31.301,8.546 -89.748,11.58 -130.288,11.58 -45.363,0 -68.465,-3.268 -74.121,-5.681 2.902,-3.985 20.802,-11.101 42.983,-15.464 2.12,-0.416 3.577,-2.374 3.367,-4.524 -0.21,-2.15 -2.016,-3.79 -4.177,-3.79 -13.002,0 -78.207,1.044 -85.023,21.652 z"
         style="fill:#73a1fb"
         inkscape:connector-curvature="0" />
      <path
         id="path238"
         d="m 404.812,269.718 c -18.331,0 -35.714,9.188 -36.446,9.577 -1.695,0.908 -2.555,2.852 -2.09,4.72 0.467,1.865 2.144,3.176 4.067,3.178 0.389,0 39.102,0.317 42.608,22.436 3.106,19.082 -36.629,50 -52.202,60.304 -1.682,1.113 -2.335,3.263 -1.554,5.123 0.665,1.583 2.206,2.573 3.868,2.573 0.29,0 0.584,-0.03 0.876,-0.092 3.696,-0.791 90.406,-19.899 81.238,-70.384 -5.593,-30.94 -25.039,-37.435 -40.365,-37.435 z"
         style="fill:#73a1fb"
         inkscape:connector-curvature="0" />
      <path
         id="path240"
         d="m 345.347,363.755 c 0.302,-1.617 -0.371,-3.262 -1.717,-4.207 l -20.791,-14.563 c -1.014,-0.71 -2.295,-0.933 -3.485,-0.618 -0.217,0.055 -21.959,5.771 -53.525,9.276 -12.528,1.405 -26.56,2.147 -40.582,2.147 -31.558,0 -52.192,-3.708 -55.197,-6.428 -0.398,-0.764 -0.272,-1.111 -0.201,-1.304 0.546,-1.518 3.472,-3.322 5.358,-4.036 2.083,-0.771 3.206,-3.033 2.558,-5.157 -0.646,-2.127 -2.837,-3.378 -4.999,-2.859 -20.856,5.033 -31.054,12.071 -30.312,20.918 1.318,15.686 37.65,23.737 68.365,25.865 4.417,0.302 9.194,0.455 14.195,0.455 0.003,0 0.005,0 0.008,0 51.074,0 116.55,-16.025 117.204,-16.188 1.599,-0.39 2.818,-1.681 3.121,-3.301 z"
         style="fill:#73a1fb"
         inkscape:connector-curvature="0" />
      <path
         id="path242"
         d="m 188.602,397.419 c 1.575,-1.024 2.273,-2.971 1.714,-4.764 -0.557,-1.793 -2.234,-2.971 -4.118,-2.946 -2.795,0.074 -27.349,1.182 -29.068,16.815 -0.52,4.672 0.818,8.941 3.979,12.686 8.816,10.448 32.614,16.658 72.741,18.984 4.747,0.285 9.569,0.428 14.334,0.428 51.015,0 85.373,-15.973 86.812,-16.653 1.395,-0.66 2.315,-2.031 2.397,-3.571 0.082,-1.54 -0.687,-3.001 -2.003,-3.806 l -26.275,-16.04 c -0.912,-0.556 -2.003,-0.74 -3.043,-0.527 -0.166,0.035 -16.849,3.495 -42.026,6.913 -4.764,0.648 -10.73,0.977 -17.73,0.977 -25.15,0 -53.124,-4.109 -58.489,-6.8 -0.078,-0.502 0.021,-1.14 0.775,-1.696 z"
         style="fill:#73a1fb"
         inkscape:connector-curvature="0" />
      <path
         id="path244"
         d="m 224.408,486.85 c 116.854,-0.099 179.571,-20.88 191.653,-33.957 4.277,-4.626 4.739,-9.006 4.376,-11.867 -0.898,-7.04 -7.311,-11.35 -8.038,-11.818 -1.754,-1.128 -4.108,-0.833 -5.476,0.745 -1.365,1.578 -1.397,3.884 -0.027,5.461 0.737,0.948 1.163,2.535 -0.992,4.692 -4.83,4.511 -53.545,18.204 -134.656,22.318 -11.111,0.577 -22.765,0.871 -34.636,0.873 -72.623,0 -125.772,-9.948 -132.749,-15.744 2.689,-3.864 21.489,-10.037 41.482,-13.529 2.253,-0.393 3.775,-2.516 3.426,-4.776 -0.349,-2.259 -2.432,-3.814 -4.709,-3.519 -0.564,0.077 -2.478,0.191 -4.694,0.327 -32.988,2.014 -71.109,6.503 -73.098,23.5 -0.604,5.179 0.935,9.881 4.576,13.973 8.909,10.01 34.516,23.319 153.558,23.319 0.002,0.002 0.002,0.002 0.004,0.002 z"
         style="fill:#73a1fb"
         inkscape:connector-curvature="0" />
      <path
         id="path246"
         d="m 439.013,456.578 c -1.652,-0.764 -3.604,-0.378 -4.836,0.952 -0.171,0.185 -17.74,18.556 -70.564,29.344 -20.223,4.052 -58.183,6.107 -112.826,6.107 -54.745,0 -106.838,-2.154 -107.357,-2.176 -2.176,-0.106 -4.037,1.476 -4.333,3.618 -0.297,2.14 1.083,4.158 3.184,4.658 0.542,0.128 55.135,12.918 129.779,12.918 35.801,0 70.639,-2.907 103.548,-8.645 61.361,-10.757 65.657,-41.183 65.81,-42.473 0.214,-1.803 -0.756,-3.539 -2.405,-4.303 z"
         style="fill:#73a1fb"
         inkscape:connector-curvature="0" />
    </g>
  </g>
  <g
     id="g4320"
     transform="translate(-50.239,-74.448792)">
    <path
       id="path1948"
       style="fill:url(#linearGradient1478);fill-opacity:1;stroke-width:0.71181345"
       d="m 278.48603,84.449446 c -3.2627,0.0152 -6.37851,0.29342 -9.12011,0.77854 -8.07639,1.42683 -9.54274,4.41332 -9.54274,9.9209 v 7.273844 h 19.08549 v 2.42462 h -19.08549 -7.16263 c -5.54678,0 -10.40369,3.33393 -11.92287,9.67621 -1.75236,7.26972 -1.83009,11.80615 0,19.39692 1.35666,5.65027 4.59656,9.67621 10.14334,9.67621 h 6.56203 v -8.71971 c 0,-6.29948 5.45045,-11.85614 11.92287,-11.85614 h 19.06326 c 5.30653,0 9.54275,-4.36924 9.54275,-9.69846 V 95.148886 c 0,-5.17228 -4.36341,-9.05767 -9.54275,-9.9209 -3.27861,-0.54577 -6.68044,-0.7937 -9.94315,-0.77854 z m -10.32129,5.85021 c 1.9714,0 3.58131,1.63621 3.58131,3.64805 0,2.0047 -1.60991,3.62579 -3.58131,3.62579 -1.97847,0 -3.58131,-1.62109 -3.58131,-3.62579 0,-2.01184 1.60284,-3.64805 3.58131,-3.64805 z"
       inkscape:connector-curvature="0" />
    <path
       id="path1950"
       style="fill:url(#linearGradient1475);fill-opacity:1;stroke-width:0.71181345"
       d="m 300.35205,104.84735 v 8.47503 c 0,6.57057 -5.57058,12.10083 -11.92287,12.10083 h -19.06326 c -5.22174,0 -9.54274,4.4691 -9.54274,9.69845 v 18.17349 c 0,5.17228 4.49765,8.21456 9.54274,9.69846 6.0414,1.77641 11.83479,2.09745 19.06326,0 4.80485,-1.39116 9.54275,-4.19088 9.54275,-9.69846 v -7.27384 h -19.06326 v -2.42462 h 19.06326 9.54275 c 5.54677,0 7.61373,-3.869 9.54274,-9.67621 1.9926,-5.97844 1.90781,-11.72768 0,-19.39692 -1.3708,-5.52185 -3.98891,-9.67621 -9.54274,-9.67621 z m -10.72169,46.02319 c 1.97847,0 3.58131,1.62109 3.58131,3.6258 0,2.01183 -1.60284,3.64804 -3.58131,3.64804 -1.9714,0 -3.58131,-1.63621 -3.58131,-3.64804 0,-2.00471 1.60991,-3.6258 3.58131,-3.6258 z"
       inkscape:connector-curvature="0" />
  </g>
  <g
     transform="matrix(1.9048491,0,0,1.9048491,296.61702,4.2836523)"
     id="surface1">
    <path
       inkscape:connector-curvature="0"
       style="fill:#283593;fill-rule:evenodd"
       d="m 22.902344,3.285156 c 0.679687,-0.378906 1.515625,-0.378906 2.195312,0 3.351563,1.882813 13.449219,7.550782 16.804688,9.433594 C 42.582031,13.101563 43,13.804688 43,14.566406 c 0,3.765625 0,15.101563 0,18.867188 0,0.761719 -0.417969,1.464844 -1.097656,1.847656 -3.355469,1.882813 -13.449219,7.550781 -16.804688,9.433594 -0.679687,0.378906 -1.515625,0.378906 -2.195312,0 C 19.546875,42.832031 9.453125,37.164063 6.097656,35.28125 5.417969,34.898438 5,34.195313 5,33.433594 5,29.667969 5,18.332031 5,14.566406 5,13.804688 5.417969,13.101563 6.097656,12.71875 9.449219,10.835938 19.550781,5.167969 22.902344,3.285156 Z"
       id="path4246" />
    <path
       inkscape:connector-curvature="0"
       style="fill:#5c6bc0;fill-rule:evenodd"
       d="M 5.304688,34.402344 C 5.039063,34.046875 5,33.710938 5,33.253906 5,29.511719 5,18.242188 5,14.496094 5,13.738281 5.417969,13.039063 6.09375,12.660156 9.4375,10.789063 19.5,5.152344 22.84375,3.28125 c 0.675781,-0.378906 1.59375,-0.371094 2.269531,0.00781 3.34375,1.871093 13.371094,7.457031 16.714844,9.328125 0.269531,0.152343 0.476563,0.335937 0.660156,0.578125 z"
       id="path4248" />
    <path
       inkscape:connector-curvature="0"
       style="fill:#ffffff;fill-rule:evenodd"
       d="m 24,10 c 7.726563,0 14,6.273438 14,14 0,7.726563 -6.273437,14 -14,14 -7.726562,0 -14,-6.273437 -14,-14 0,-7.726562 6.273438,-14 14,-14 z m 0,7 c 3.863281,0 7,3.136719 7,7 0,3.863281 -3.136719,7 -7,7 -3.863281,0 -7,-3.136719 -7,-7 0,-3.863281 3.136719,-7 7,-7 z"
       id="path4250" />
    <path
       inkscape:connector-curvature="0"
       style="fill:#3949ab;fill-rule:evenodd"
       d="M 42.484375,13.203125 C 43,13.6875 42.992188,14.414063 42.992188,14.988281 c 0,3.796875 -0.03125,14.589844 0.0078,18.382813 0.0039,0.398437 -0.128906,0.816406 -0.324219,1.128906 L 23.59375,24 Z"
       id="path4252" />
  </g>
</svg>
